{
  "accessors": [
    {
      "bufferView": 2,
      "componentType": 5126,
      "count": 65532,
      "max": [
        10.905789375305176,
        -1.2688894271850586,
        11.464635848999023
      ],
      "min": [
        -10.045040130615234,
        -13.899306297302246,
        -18.409671783447266
      ],
      "type": "VEC3"
    },
    {
      "bufferView": 2,
      "byteOffset": 786384,
      "componentType": 5126,
      "count": 65532,
      "max": [
        0.9999375343322754,
        0.9999431371688843,
        0.9999806880950928
      ],
      "min": [
        -0.9999854564666748,
        -1.0,
        -0.9999565482139587
      ],
      "type": "VEC3"
    },
    {
      "bufferView": 1,
      "componentType": 5126,
      "count": 65532,
      "max": [
        0.9996179938316345,
        0.9985960125923157
      ],
      "min": [
        0.5001829862594604,
        0.5003319978713989
      ],
      "type": "VEC2"
    },
    {
      "bufferView": 0,
      "componentType": 5125,
      "count": 264225,
      "type": "SCALAR"
    },
    {
      "bufferView": 2,
      "byteOffset": 1572768,
      "componentType": 5126,
      "count": 65532,
      "max": [
        6.850104331970215,
        -1.2642736434936523,
        11.616209983825684
      ],
      "min": [
        -7.605381011962891,
        -14.005578994750977,
        -19.6302433013916
      ],
      "type": "VEC3"
    },
    {
      "bufferView": 2,
      "byteOffset": 2359152,
      "componentType": 5126,
      "count": 65532,
      "max": [
        0.9999486804008484,
        0.9999493360519409,
        0.9999800324440002
      ],
      "min": [
        -0.9999892115592957,
        -0.9999993443489075,
        -0.9999976754188538
      ],
      "type": "VEC3"
    },
    {
      "bufferView": 1,
      "byteOffset": 524256,
      "componentType": 5126,
      "count": 65532,
      "max": [
        0.9996939897537231,
        0.83502197265625
      ],
      "min": [
        0.5001829862594604,
        0.5003150105476379
      ],
      "type": "VEC2"
    },
    {
      "bufferView": 0,
      "byteOffset": 1056900,
      "componentType": 5125,
      "count": 262290,
      "type": "SCALAR"
    },
    {
      "bufferView": 2,
      "byteOffset": 3145536,
      "componentType": 5126,
      "count": 65532,
      "max": [
        11.344444274902344,
        -1.2770843505859375,
        15.831647872924805
      ],
      "min": [
        -10.6934175491333,
        -20.15035629272461,
        -18.768646240234375
      ],
      "type": "VEC3"
    },
    {
      "bufferView": 2,
      "byteOffset": 3931920,
      "componentType": 5126,
      "count": 65532,
      "max": [
        0.9999787211418152,
        0.9998819231987,
        0.9999399781227112
      ],
      "min": [
        -0.9999676942825317,
        -0.9999998807907104,
        -0.999747633934021
      ],
      "type": "VEC3"
    },
    {
      "bufferView": 1,
      "byteOffset": 1048512,
      "componentType": 5126,
      "count": 65532,
      "max": [
        0.9996410012245178,
        0.8179320096969604
      ],
      "min": [
        0.0001829999964684248,
        0.500307023525238
      ],
      "type": "VEC2"
    },
    {
      "bufferView": 0,
      "byteOffset": 2106060,
      "componentType": 5125,
      "count": 273294,
      "type": "SCALAR"
    },
    {
      "bufferView": 2,
      "byteOffset": 4718304,
      "componentType": 5126,
      "count": 65532,
      "max": [
        6.975776195526123,
        -1.2794666290283203,
        15.386957168579102
      ],
      "min": [
        -7.5937886238098145,
        -16.80776596069336,
        -18.889999389648438
      ],
      "type": "VEC3"
    },
    {
      "bufferView": 2,
      "byteOffset": 5504688,
      "componentType": 5126,
      "count": 65532,
      "max": [
        0.9998372793197632,
        0.9999915957450867,
        0.9999572038650513
      ],
      "min": [
        -0.9999972581863403,
        -0.9999998807907104,
        -0.9999474883079529
      ],
      "type": "VEC3"
    },
    {
      "bufferView": 1,
      "byteOffset": 1572768,
      "componentType": 5126,
      "count": 65532,
      "max": [
        0.4996829926967621,
        0.7739869952201843
      ],
      "min": [
        0.0001829999964684248,
        0.5003060102462769
      ],
      "type": "VEC2"
    },
    {
      "bufferView": 0,
      "byteOffset": 3199236,
      "componentType": 5125,
      "count": 274992,
      "type": "SCALAR"
    },
    {
      "bufferView": 2,
      "byteOffset": 6291072,
      "componentType": 5126,
      "count": 65532,
      "max": [
        7.431903839111328,
        -1.279367446899414,
        15.859107971191406
      ],
      "min": [
        -9.326315879821777,
        -20.8804874420166,
        -9.062492370605469
      ],
      "type": "VEC3"
    },
    {
      "bufferView": 2,
      "byteOffset": 7077456,
      "componentType": 5126,
      "count": 65532,
      "max": [
        0.9999508261680603,
        1.0,
        0.9999295473098755
      ],
      "min": [
        -0.9999553561210632,
        -1.0,
        -0.9997512698173523
      ],
      "type": "VEC3"
    },
    {
      "bufferView": 1,
      "byteOffset": 2097024,
      "componentType": 5126,
      "count": 65532,
      "max": [
        0.49968600273132324,
        0.9186400175094604
      ],
      "min": [
        0.0001829999964684248,
        0.5003250241279602
      ],
      "type": "VEC2"
    },
    {
      "bufferView": 0,
      "byteOffset": 4299204,
      "componentType": 5125,
      "count": 259923,
      "type": "SCALAR"
    },
    {
      "bufferView": 2,
      "byteOffset": 7863840,
      "componentType": 5126,
      "count": 41030,
      "max": [
        6.846774101257324,
        -1.279367446899414,
        7.008915424346924
      ],
      "min": [
        -7.0309247970581055,
        -20.859752655029297,
        -13.561372756958008
      ],
      "type": "VEC3"
    },
    {
      "bufferView": 2,
      "byteOffset": 8356200,
      "componentType": 5126,
      "count": 41030,
      "max": [
        0.9999554753303528,
        0.9999654293060303,
        1.0
      ],
      "min": [
        -0.9999240636825562,
        -0.9999998211860657,
        -1.0
      ],
      "type": "VEC3"
    },
    {
      "bufferView": 1,
      "byteOffset": 2621280,
      "componentType": 5126,
      "count": 41030,
      "max": [
        0.9019299745559692,
        0.9998170137405396
      ],
      "min": [
        0.0001829999964684248,
        0.5003190040588379
      ],
      "type": "VEC2"
    },
    {
      "bufferView": 0,
      "byteOffset": 5338896,
      "componentType": 5125,
      "count": 165264,
      "type": "SCALAR"
    }
  ],
  "asset": {
    "extras": {
      "author": "David Antalek (https://sketchfab.com/David.Antalek)",
      "license": "CC-BY-4.0 (http://creativecommons.org/licenses/by/4.0/)",
      "source": "https://sketchfab.com/3d-models/honda-cb175-motorcycle-downloadable-3d-scan-e69c3bd3a52c40c09e5e3048f1ddcf2f",
      "title": "Honda CB175 motorcycle - Downloadable 3D scan"
    },
    "generator": "Sketchfab-16.67.0",
    "version": "2.0"
  },
  "bufferViews": [
    {
      "buffer": 0,
      "byteLength": 5999952,
      "name": "floatBufferViews",
      "target": 34963
    },
    {
      "buffer": 0,
      "byteLength": 2949520,
      "byteOffset": 5999952,
      "byteStride": 8,
      "name": "floatBufferViews",
      "target": 34962
    },
    {
      "buffer": 0,
      "byteLength": 8848560,
      "byteOffset": 8949472,
      "byteStride": 12,
      "name": "floatBufferViews",
      "target": 34962
    }
  ],
  "buffers": [
    {
      "byteLength": 17798032,
      "uri": "scene.bin"
    }
  ],
  "extensionsUsed": [
    "KHR_materials_unlit"
  ],
  "images": [
    {
      "uri": "textures/Motorcycle_baseColor.png"
    }
  ],
  "materials": [
    {
      "doubleSided": true,
      "extensions": {
        "KHR_materials_unlit": {}
      },
      "name": "Motorcycle",
      "pbrMetallicRoughness": {
        "baseColorTexture": {
          "index": 0
        },
        "metallicFactor": 0.0
      }
    }
  ],
  "meshes": [
    {
      "name": "Object_0",
      "primitives": [
        {
          "attributes": {
            "NORMAL": 1,
            "POSITION": 0,
            "TEXCOORD_0": 2
          },
          "indices": 3,
          "material": 0,
          "mode": 4
        }
      ]
    },
    {
      "name": "Object_1",
      "primitives": [
        {
          "attributes": {
            "NORMAL": 5,
            "POSITION": 4,
            "TEXCOORD_0": 6
          },
          "indices": 7,
          "material": 0,
          "mode": 4
        }
      ]
    },
    {
      "name": "Object_2",
      "primitives": [
        {
          "attributes": {
            "NORMAL": 9,
            "POSITION": 8,
            "TEXCOORD_0": 10
          },
          "indices": 11,
          "material": 0,
          "mode": 4
        }
      ]
    },
    {
      "name": "Object_3",
      "primitives": [
        {
          "attributes": {
            "NORMAL": 13,
            "POSITION": 12,
            "TEXCOORD_0": 14
          },
          "indices": 15,
          "material": 0,
          "mode": 4
        }
      ]
    },
    {
      "name": "Object_4",
      "primitives": [
        {
          "attributes": {
            "NORMAL": 17,
            "POSITION": 16,
            "TEXCOORD_0": 18
          },
          "indices": 19,
          "material": 0,
          "mode": 4
        }
      ]
    },
    {
      "name": "Object_5",
      "primitives": [
        {
          "attributes": {
            "NORMAL": 21,
            "POSITION": 20,
            "TEXCOORD_0": 22
          },
          "indices": 23,
          "material": 0,
          "mode": 4
        }
      ]
    }
  ],
  "nodes": [
    {
      "children": [
        1
      ],
      "matrix": [
        0.9999508857727051,
        -0.008454407565295698,
        0.0051754186861217005,
        0.0,
        -0.008634326048195362,
        -0.9993220567703247,
        0.0357895605266092,
        0.0,
        0.004869330674409866,
        -0.035832487046718375,
        -0.9993459582328796,
        0.0,
        0.0,
        0.0,
        0.0,
        1.0
      ],
      "name": "Sketchfab_model"
    },
    {
      "children": [
        2,
        3,
        4,
        5,
        6,
        7
      ],
      "name": "Motorcycle.obj.cleaner.materialmerger.gles"
    },
    {
      "mesh": 0,
      "name": "Object_2"
    },
    {
      "mesh": 1,
      "name": "Object_3"
    },
    {
      "mesh": 2,
      "name": "Object_4"
    },
    {
      "mesh": 3,
      "name": "Object_5"
    },
    {
      "mesh": 4,
      "name": "Object_6"
    },
    {
      "mesh": 5,
      "name": "Object_7"
    }
  ],
  "samplers": [
    {
      "magFilter": 9729,
      "minFilter": 9987,
      "wrapS": 10497,
      "wrapT": 10497
    }
  ],
  "scene": 0,
  "scenes": [
    {
      "name": "Sketchfab_Scene",
      "nodes": [
        0
      ]
    }
  ],
  "textures": [
    {
      "sampler": 0,
      "source": 0
    }
  ]
}
